<?xml version="1.0" encoding="UTF-8" standalone="no"?>
<svg
   width="61"
   height="60"
   viewBox="0 0 31.433686 31.343284"
   fill="none"
   version="1.1"
   id="svg60"
   sodipodi:docname="favicon.svg"
   inkscape:version="1.1.2 (0a00cf5339, 2022-02-04)"
   xmlns:inkscape="http://www.inkscape.org/namespaces/inkscape"
   xmlns:sodipodi="http://sodipodi.sourceforge.net/DTD/sodipodi-0.dtd"
   xmlns="http://www.w3.org/2000/svg"
   xmlns:svg="http://www.w3.org/2000/svg">
  <sodipodi:namedview
     id="namedview62"
     pagecolor="#ffffff"
     bordercolor="#666666"
     borderopacity="1.0"
     inkscape:pageshadow="2"
     inkscape:pageopacity="0.0"
     inkscape:pagecheckerboard="0"
     showgrid="false"
     inkscape:zoom="7.5459184"
     inkscape:cx="98"
     inkscape:cy="33.528059"
     inkscape:window-width="2560"
     inkscape:window-height="1408"
     inkscape:window-x="0"
     inkscape:window-y="0"
     inkscape:window-maximized="1"
     inkscape:current-layer="svg60" />
  <path
     d="m 22.698113,31.27623 c -1.869677,0 -3.485944,-0.366583 -4.848978,-1.09975 -1.363033,-0.743774 -2.418468,-1.790331 -3.16648,-3.139826 -0.747836,-1.360102 -1.121665,-2.96449 -1.121665,-4.813318 0,-1.880807 0.367808,-3.501105 1.103602,-4.861208 0.747836,-1.37071 1.797249,-2.422726 3.148241,-3.155893 1.36321,-0.733166 2.979477,-1.09975 4.849154,-1.09975 1.893762,0 3.510206,0.382651 4.849155,1.14764 1.350992,0.754382 2.376145,1.848828 3.075813,3.283339 0.71171,1.434355 1.049413,3.161041 1.013288,5.179902 h -2.171256 v -0.637543 c -0.06039,-2.358925 -0.663365,-4.15456 -1.809291,-5.387216 -1.145925,-1.2325 -2.786453,-1.848829 -4.921583,-1.848829 -2.207381,0 -3.914139,0.642847 -5.120451,1.928541 -1.194093,1.275086 -1.791228,3.081485 -1.791228,5.419039 0,2.316495 0.597135,4.112129 1.791228,5.387216 1.206312,1.275086 2.901028,1.912629 5.084325,1.912629 1.507713,0 2.822579,-0.308086 3.944421,-0.924414 1.133884,-0.626936 2.03242,-1.519527 2.695962,-2.677619 l 1.88172,0.733167 c -0.784138,1.487548 -1.918022,2.635032 -3.401651,3.442608 -1.48363,0.807575 -3.178346,1.211285 -5.084326,1.211285 z m -7.707859,-8.558864 v -1.657581 h 15.433958 v 1.657581 z"
     fill="url(#paint2_linear_56_57)"
     id="path6"
     style="fill:url(#paint2_linear_56_57);stroke-width:1.66205" />
  <path
     d="M 2.8187264,31.454742 13.370866,5.7268123 H -0.05913357 V 0.1640122 H 19.737066 V 5.7268123 L 9.2284864,31.454742 Z"
     fill="url(#paint7_linear_56_57)"
     id="path16"
     style="fill:url(#paint7_linear_56_57)" />
  <defs
     id="defs58">
    <linearGradient
       id="paint0_linear_56_57"
       x1="31.4312"
       y1="28.097799"
       x2="93.054703"
       y2="27.4592"
       gradientUnits="userSpaceOnUse">
      <stop
         stop-color="#3300FF"
         id="stop18" />
      <stop
         offset="1"
         stop-color="#3300FF"
         id="stop20" />
    </linearGradient>
    <linearGradient
       id="paint1_linear_56_57"
       x1="31.4312"
       y1="28.097799"
       x2="93.054703"
       y2="27.4592"
       gradientUnits="userSpaceOnUse">
      <stop
         stop-color="#3300FF"
         id="stop23" />
      <stop
         offset="1"
         stop-color="#3300FF"
         id="stop25" />
    </linearGradient>
    <linearGradient
       id="paint2_linear_56_57"
       x1="31.4312"
       y1="28.097799"
       x2="93.054703"
       y2="27.4592"
       gradientUnits="userSpaceOnUse"
       gradientTransform="matrix(1.7708632,0,0,1.5599293,-75.213445,-21.001526)">
      <stop
         stop-color="#3300FF"
         id="stop28" />
      <stop
         offset="1"
         stop-color="#3300FF"
         id="stop30" />
    </linearGradient>
    <linearGradient
       id="paint3_linear_56_57"
       x1="31.4312"
       y1="28.097799"
       x2="93.054703"
       y2="27.4592"
       gradientUnits="userSpaceOnUse">
      <stop
         stop-color="#3300FF"
         id="stop33" />
      <stop
         offset="1"
         stop-color="#3300FF"
         id="stop35" />
    </linearGradient>
    <linearGradient
       id="paint4_linear_56_57"
       x1="31.4312"
       y1="28.097799"
       x2="93.054703"
       y2="27.4592"
       gradientUnits="userSpaceOnUse">
      <stop
         stop-color="#3300FF"
         id="stop38" />
      <stop
         offset="1"
         stop-color="#3300FF"
         id="stop40" />
    </linearGradient>
    <linearGradient
       id="paint5_linear_56_57"
       x1="31.4312"
       y1="28.097799"
       x2="93.054703"
       y2="27.4592"
       gradientUnits="userSpaceOnUse">
      <stop
         stop-color="#3300FF"
         id="stop43" />
      <stop
         offset="1"
         stop-color="#3300FF"
         id="stop45" />
    </linearGradient>
    <linearGradient
       id="paint6_linear_56_57"
       x1="14.5386"
       y1="17.3067"
       x2="32.618198"
       y2="17.3067"
       gradientUnits="userSpaceOnUse">
      <stop
         stop-color="#643EFF"
         id="stop48" />
      <stop
         offset="1"
         stop-color="#A691FC"
         id="stop50" />
    </linearGradient>
    <linearGradient
       id="paint7_linear_56_57"
       x1="9.8980799"
       y1="1.9157701"
       x2="9.8980799"
       y2="33.206501"
       gradientUnits="userSpaceOnUse"
       gradientTransform="translate(-0.05913357,-1.7517577)">
      <stop
         stop-color="#9278FE"
         id="stop53" />
      <stop
         offset="1"
         stop-color="#613CFB"
         id="stop55" />
    </linearGradient>
  </defs>
</svg>
